<?xml version="1.0" encoding="utf-8"?>
<!-- Generator: Adobe Illustrator 17.1.0, SVG Export Plug-In . SVG Version: 6.00 Build 0)  -->
<!DOCTYPE svg PUBLIC "-//W3C//DTD SVG 1.1//EN" "http://www.w3.org/Graphics/SVG/1.1/DTD/svg11.dtd">
<svg version="1.1" id="Camada_1" xmlns="http://www.w3.org/2000/svg" xmlns:xlink="http://www.w3.org/1999/xlink" x="0px" y="0px"
	 viewBox="0 0 100 30" enable-background="new 0 0 100 30" xml:space="preserve">
<rect x="0" y="0" fill="#FFFFFF" width="100" height="30"/>
<g>
	<path d="M4.8,5.9L13.1,18h0V5.9h1.4v14.3H13L4.7,8.1h0v12.1H3.3V5.9H4.8z"/>
	<path d="M18.4,5.9v2h-1.3v-2H18.4z M18.4,9.9v10.3h-1.3V9.9H18.4z"/>
	<path d="M27.1,11.3c-0.5-0.4-1.1-0.7-2-0.7c-0.6,0-1.1,0.1-1.6,0.4c-0.5,0.3-0.8,0.6-1.1,1c-0.3,0.4-0.5,0.9-0.7,1.4
		c-0.2,0.5-0.2,1.1-0.2,1.6c0,0.5,0.1,1.1,0.2,1.6s0.4,1,0.7,1.4c0.3,0.4,0.7,0.7,1.1,1c0.5,0.3,1,0.4,1.6,0.4
		c0.4,0,0.8-0.1,1.1-0.2c0.3-0.1,0.7-0.4,0.9-0.6c0.3-0.3,0.5-0.6,0.7-0.9c0.2-0.4,0.3-0.8,0.3-1.2h1.3c-0.2,1.3-0.6,2.2-1.4,2.9
		s-1.7,1-2.9,1c-0.8,0-1.5-0.1-2.1-0.4c-0.6-0.3-1.1-0.7-1.5-1.2c-0.4-0.5-0.7-1.1-0.9-1.7c-0.2-0.7-0.3-1.4-0.3-2.1
		c0-0.7,0.1-1.4,0.3-2.1c0.2-0.7,0.5-1.2,0.9-1.7c0.4-0.5,0.9-0.9,1.5-1.2c0.6-0.3,1.3-0.4,2.1-0.4c1.1,0,2,0.3,2.8,0.9
		c0.8,0.6,1.2,1.5,1.4,2.7h-1.3C27.9,12.3,27.6,11.7,27.1,11.3z"/>
	<path d="M32.1,16.8c0.1,0.5,0.3,0.9,0.6,1.3c0.3,0.4,0.6,0.7,1.1,1c0.4,0.3,0.9,0.4,1.5,0.4c0.9,0,1.6-0.2,2.2-0.7s0.9-1.1,1.1-1.9
		h1.3c-0.3,1.2-0.8,2.1-1.5,2.7c-0.7,0.6-1.7,1-3,1c-0.8,0-1.5-0.1-2.1-0.4s-1.1-0.7-1.5-1.2c-0.4-0.5-0.6-1.1-0.8-1.7
		c-0.2-0.7-0.3-1.4-0.3-2.1c0-0.7,0.1-1.3,0.3-2c0.2-0.7,0.5-1.2,0.8-1.8c0.4-0.5,0.9-0.9,1.5-1.2c0.6-0.3,1.3-0.5,2.1-0.5
		c0.8,0,1.5,0.2,2.1,0.5c0.6,0.3,1.1,0.8,1.4,1.3c0.4,0.5,0.6,1.2,0.8,1.9c0.2,0.7,0.2,1.4,0.2,2.1h-7.9
		C31.9,15.8,32,16.3,32.1,16.8z M38.4,12.9c-0.2-0.4-0.4-0.8-0.6-1.2c-0.3-0.3-0.6-0.6-1-0.8c-0.4-0.2-0.9-0.3-1.4-0.3
		c-0.5,0-1,0.1-1.4,0.3c-0.4,0.2-0.7,0.5-1,0.8c-0.3,0.3-0.5,0.7-0.7,1.2c-0.2,0.4-0.3,0.9-0.3,1.4h6.7
		C38.6,13.8,38.5,13.4,38.4,12.9z"/>
	<path d="M53.4,5.9c0.6,0,1.2,0.1,1.7,0.2s1,0.3,1.5,0.6s0.8,0.6,1,1.1c0.3,0.4,0.4,1,0.4,1.7c0,0.4-0.1,0.7-0.2,1.1
		c-0.1,0.4-0.3,0.7-0.5,1c-0.2,0.3-0.5,0.5-0.8,0.7c-0.3,0.2-0.6,0.3-1,0.4v0c0.9,0.1,1.7,0.5,2.2,1.1c0.5,0.6,0.8,1.4,0.8,2.4
		c0,0.2,0,0.5-0.1,0.8c0,0.3-0.1,0.6-0.2,0.9c-0.1,0.3-0.3,0.6-0.5,0.9c-0.2,0.3-0.5,0.5-0.9,0.8S56,19.8,55.4,20
		c-0.6,0.1-1.2,0.2-2,0.2h-6V5.9H53.4z M53.4,12.2c0.5,0,1-0.1,1.4-0.2c0.4-0.1,0.7-0.3,1-0.5s0.5-0.5,0.6-0.8
		c0.1-0.3,0.2-0.6,0.2-0.9c0-1.8-1.1-2.7-3.2-2.7h-4.7v5.1H53.4z M53.4,19c0.5,0,1,0,1.4-0.1c0.5-0.1,0.9-0.2,1.2-0.5
		c0.3-0.2,0.6-0.5,0.8-0.9c0.2-0.4,0.3-0.9,0.3-1.4c0-0.9-0.3-1.6-1-2.1c-0.6-0.5-1.6-0.7-2.8-0.7h-4.7V19H53.4z"/>
	<path d="M61.6,9.9v2.4h0c0.3-0.8,0.8-1.5,1.5-1.9c0.7-0.5,1.5-0.7,2.4-0.6V11C65,11,64.5,11,64,11.2c-0.5,0.2-0.9,0.4-1.2,0.8
		c-0.3,0.3-0.6,0.7-0.8,1.2c-0.2,0.5-0.3,1-0.3,1.5v5.5h-1.3V9.9H61.6z"/>
	<path d="M67,11.5c0.2-0.4,0.5-0.8,0.9-1.1c0.4-0.3,0.8-0.5,1.3-0.6c0.5-0.1,1-0.2,1.6-0.2c0.5,0,0.9,0,1.4,0.1
		c0.5,0.1,0.9,0.2,1.2,0.5c0.4,0.2,0.7,0.6,0.9,1c0.2,0.4,0.3,1,0.3,1.7v5.5c0,0.5,0.2,0.8,0.7,0.8c0.1,0,0.3,0,0.4-0.1v1.1
		c-0.1,0-0.3,0-0.4,0.1c-0.1,0-0.3,0-0.4,0c-0.3,0-0.6,0-0.8-0.1s-0.3-0.2-0.4-0.4c-0.1-0.2-0.2-0.4-0.2-0.6c0-0.2-0.1-0.5-0.1-0.7
		h0c-0.2,0.3-0.5,0.6-0.7,0.9c-0.2,0.3-0.5,0.5-0.8,0.7c-0.3,0.2-0.6,0.3-1,0.4c-0.4,0.1-0.8,0.1-1.3,0.1c-0.5,0-0.9-0.1-1.4-0.2
		c-0.4-0.1-0.8-0.3-1.1-0.5c-0.3-0.2-0.6-0.6-0.7-0.9c-0.2-0.4-0.3-0.8-0.3-1.4c0-0.7,0.2-1.3,0.5-1.7c0.3-0.4,0.7-0.7,1.3-0.9
		c0.5-0.2,1.1-0.4,1.8-0.5c0.7-0.1,1.3-0.2,2-0.2c0.3,0,0.5-0.1,0.7-0.1c0.2,0,0.4-0.1,0.5-0.2s0.2-0.2,0.3-0.4s0.1-0.4,0.1-0.7
		c0-0.4-0.1-0.8-0.2-1.1c-0.1-0.3-0.3-0.5-0.6-0.6c-0.2-0.2-0.5-0.3-0.9-0.3c-0.3-0.1-0.7-0.1-1-0.1c-0.8,0-1.5,0.2-2,0.6
		c-0.5,0.4-0.8,1-0.8,1.8h-1.3C66.7,12.4,66.8,11.9,67,11.5z M73.3,14.5c-0.1,0.1-0.2,0.3-0.5,0.3S72.4,15,72.3,15
		c-0.5,0.1-1.1,0.2-1.7,0.2c-0.6,0.1-1.1,0.2-1.5,0.3c-0.5,0.1-0.9,0.4-1.1,0.6c-0.3,0.3-0.5,0.7-0.5,1.2c0,0.3,0.1,0.6,0.2,0.8
		c0.1,0.2,0.3,0.5,0.5,0.6c0.2,0.2,0.5,0.3,0.7,0.4c0.3,0.1,0.6,0.1,0.9,0.1c0.5,0,0.9-0.1,1.4-0.2c0.4-0.1,0.8-0.4,1.1-0.6
		c0.3-0.3,0.6-0.6,0.8-1s0.3-0.9,0.3-1.4L73.3,14.5L73.3,14.5z"/>
	<path d="M78.4,9.9v1.8h0c0.2-0.6,0.7-1.1,1.3-1.5c0.6-0.4,1.3-0.6,2-0.6c0.7,0,1.3,0.1,1.8,0.3s0.9,0.4,1.2,0.8
		c0.3,0.3,0.5,0.8,0.6,1.2s0.2,1,0.2,1.7v6.6h-1.3v-6.4c0-0.4,0-0.9-0.1-1.2c-0.1-0.4-0.2-0.7-0.4-1c-0.2-0.3-0.5-0.5-0.8-0.7
		c-0.3-0.2-0.8-0.2-1.3-0.2c-0.5,0-1,0.1-1.4,0.3c-0.4,0.2-0.7,0.4-1,0.7c-0.3,0.3-0.5,0.7-0.6,1.1c-0.2,0.4-0.2,0.9-0.2,1.4v6h-1.3
		V9.9H78.4z"/>
	<path d="M95.8,20.2v-2h0c-0.1,0.3-0.3,0.6-0.6,0.9c-0.3,0.3-0.6,0.5-0.9,0.7c-0.3,0.2-0.7,0.3-1.1,0.5c-0.4,0.1-0.8,0.2-1.1,0.2
		c-0.8,0-1.5-0.1-2-0.4s-1.1-0.7-1.5-1.2s-0.7-1.1-0.9-1.7c-0.2-0.7-0.3-1.4-0.3-2.1c0-0.7,0.1-1.4,0.3-2.1c0.2-0.7,0.5-1.2,0.9-1.7
		s0.9-0.9,1.5-1.2c0.6-0.3,1.3-0.4,2-0.4c0.4,0,0.8,0,1.1,0.1s0.7,0.2,1,0.4s0.6,0.4,0.9,0.7c0.2,0.3,0.4,0.6,0.6,1h0V5.9H97v14.3
		H95.8z M88.9,16.6c0.1,0.5,0.3,1,0.6,1.4c0.3,0.4,0.6,0.8,1,1c0.4,0.3,0.9,0.4,1.5,0.4c0.7,0,1.2-0.1,1.7-0.4
		c0.5-0.3,0.8-0.6,1.1-1c0.3-0.4,0.5-0.9,0.6-1.4c0.1-0.5,0.2-1.1,0.2-1.6c0-0.5-0.1-1.1-0.2-1.6c-0.1-0.5-0.3-1-0.6-1.4
		c-0.3-0.4-0.7-0.8-1.1-1c-0.5-0.3-1-0.4-1.7-0.4c-0.6,0-1.1,0.1-1.5,0.4c-0.4,0.3-0.8,0.6-1,1c-0.3,0.4-0.5,0.9-0.6,1.4
		c-0.1,0.5-0.2,1.1-0.2,1.6C88.7,15.6,88.8,16.1,88.9,16.6z"/>
</g>
</svg>
